# xmcd
#
# Track frame offsets: 
#        150
#        19658
#        35601
#        49844
#        77430
#        88780
#        110446
#        129153
#        154101
#        173703
#        192888
#
# Disc length: 3017 seconds
#
# Revision: 0
# Processed by: cddbd v1.5.2PL0 Copyright (c) Steve Scherf et al.
# Submitted via: ExactAudioCopy v0.99pb3
#
DISCID=7e0bc70b
DTITLE=Kasey Anderson - Nowhere Nights
DYEAR=2009
DGENRE=Rock
TTITLE0=Bellingham Blues
TTITLE1=All Lit Up
TTITLE2=Sooner/Later
TTITLE3=Home
TTITLE4=Torn Apart
TTITLE5=Leaving Kind
TTITLE6=Nowhere Nights
TTITLE7=From Now On
TTITLE8=I Was a Photograph
TTITLE9=Like Teenage Gravity
TTITLE10=Real Gone
EXTD=
EXTT0=
EXTT1=
EXTT2=
EXTT3=
EXTT4=
EXTT5=
EXTT6=
EXTT7=
EXTT8=
EXTT9=
EXTT10=
PLAYORDER=
